<svg width="64" height="52" viewBox="0 0 64 52" fill="none" xmlns="http://www.w3.org/2000/svg">
<ellipse cx="15.5153" cy="11.7736" rx="11.6364" ry="11.7736" fill="#6FCE5E"/>
<path d="M9.88263 22.566C6.58842 22.566 0 27.4717 0 47.0943H32C32 31.3962 25.2121 22.566 21.3333 22.566H9.88263Z" fill="#6FCE5E"/>
<ellipse cx="47.5153" cy="11.7736" rx="11.6364" ry="11.7736" fill="#6FCE5E"/>
<path d="M41.8826 22.566C38.5884 22.566 32 27.4717 32 47.0943H64C64 31.3962 57.2121 22.566 53.3333 22.566H41.8826Z" fill="#6FCE5E"/>
<circle cx="31.675" cy="28.5904" r="7.80318" fill="#B7FFAA"/>
<path d="M27.8979 35.7435C25.6889 35.7435 21.2708 38.9949 21.2708 52.0002H42.7295C42.7295 41.5959 38.1776 35.7435 35.5766 35.7435H27.8979Z" fill="#B7FFAA"/>
</svg>
