<svg width="28" height="28" viewBox="0 0 28 28" fill="none" xmlns="http://www.w3.org/2000/svg">
<path d="M5.2634 21C4.67093 21 4.21214 20.7857 3.88703 20.3572C3.56172 19.9286 3.43718 19.4504 3.5134 18.9225L4.78332 10.0377C4.91301 9.15726 5.2984 8.43082 5.93949 7.85837C6.58076 7.28612 7.3426 7 8.22499 7H19.775C20.6574 7 21.4192 7.28612 22.0605 7.85837C22.7016 8.43082 23.087 9.15726 23.2167 10.0377L24.4866 18.9225C24.5628 19.4504 24.4382 19.9286 24.1129 20.3572C23.7878 20.7857 23.329 21 22.7366 21C22.4778 21 22.2444 20.9607 22.0366 20.8822C21.8287 20.8036 21.6312 20.6709 21.4442 20.484L18.4602 17.5H9.53982L6.55578 20.484C6.36872 20.6709 6.17126 20.8036 5.9634 20.8822C5.75554 20.9607 5.52221 21 5.2634 21ZM19.8333 14.9424C20.089 14.9424 20.31 14.8492 20.4963 14.663C20.6826 14.4767 20.7757 14.2557 20.7757 14C20.7757 13.7443 20.6826 13.5233 20.4963 13.337C20.31 13.1508 20.089 13.0576 19.8333 13.0576C19.5776 13.0576 19.3566 13.1508 19.1704 13.337C18.9841 13.5233 18.8909 13.7443 18.8909 14C18.8909 14.2557 18.9841 14.4767 19.1704 14.663C19.3566 14.8492 19.5776 14.9424 19.8333 14.9424ZM17.5 11.4424C17.7557 11.4424 17.9767 11.3492 18.1629 11.163C18.3492 10.9767 18.4424 10.7557 18.4424 10.5C18.4424 10.2443 18.3492 10.0233 18.1629 9.83704C17.9767 9.65076 17.7557 9.55763 17.5 9.55763C17.2443 9.55763 17.0233 9.65076 16.837 9.83704C16.6508 10.0233 16.5576 10.2443 16.5576 10.5C16.5576 10.7557 16.6508 10.9767 16.837 11.163C17.0233 11.3492 17.2443 11.4424 17.5 11.4424ZM9.40069 14.8076H10.4326V12.766H12.4743V11.734H10.4326V9.69237H9.40069V11.734H7.35903V12.766H9.40069V14.8076Z" fill="#98FF86"/>
</svg>
