<svg width="28" height="28" viewBox="0 0 28 28" fill="none" xmlns="http://www.w3.org/2000/svg">
<path d="M20.5515 24.4998H21.4487V21.5832H24.3653V20.6857H21.4487V17.769H20.5515V20.6857H17.6348V21.5832H20.5515V24.4998ZM21.0001 25.8013C19.7002 25.8013 18.5975 25.3484 17.692 24.4427C16.7863 23.5369 16.3334 22.4343 16.3334 21.1346C16.3334 19.8347 16.7863 18.7319 17.692 17.8262C18.5975 16.9207 19.7002 16.4679 21.0001 16.4679C22.2999 16.4679 23.4026 16.9207 24.3082 17.8262C25.2139 18.7319 25.6667 19.8347 25.6667 21.1346C25.6667 22.4343 25.2139 23.5369 24.3082 24.4427C23.4026 25.3484 22.2999 25.8013 21.0001 25.8013ZM8.75008 10.1857H19.2501V9.01904H8.75008V10.1857ZM13.4415 23.3332H6.5515C6.03311 23.3332 5.58939 23.1486 5.22033 22.7796C4.85128 22.4105 4.66675 21.9668 4.66675 21.4484V6.55125C4.66675 6.03286 4.85128 5.58914 5.22033 5.22009C5.58939 4.85103 6.03311 4.6665 6.5515 4.6665H21.4487C21.9671 4.6665 22.4108 4.85103 22.7798 5.22009C23.1489 5.58914 23.3334 6.03286 23.3334 6.55125V13.4929C22.949 13.3702 22.5635 13.2745 22.177 13.2056C21.7902 13.1368 21.3979 13.1024 21.0001 13.1024C20.6067 13.1024 20.2242 13.1334 19.8524 13.1954C19.4808 13.2576 19.1155 13.3455 18.7566 13.4591V13.4165H8.75008V14.5832H16.4343C15.845 14.9886 15.3271 15.4642 14.8806 16.01C14.4342 16.556 14.0666 17.1573 13.7778 17.814H8.75008V18.9806H13.3695C13.2859 19.3096 13.2205 19.6413 13.1732 19.9755C13.1262 20.3099 13.1026 20.6514 13.1026 20.9998C13.1026 21.3572 13.1235 21.7495 13.1653 22.1767C13.2073 22.6037 13.2994 22.9892 13.4415 23.3332Z" fill="#98FF86"/>
</svg>
