<svg width="28" height="28" viewBox="0 0 28 28" fill="none" xmlns="http://www.w3.org/2000/svg">
<path d="M20.5515 24.5H21.4487V21.5833H24.3653V20.6858H21.4487V17.7692H20.5515V20.6858H17.6348V21.5833H20.5515V24.5ZM21.0001 25.8014C19.7002 25.8014 18.5975 25.3485 17.692 24.4428C16.7863 23.5371 16.3334 22.4344 16.3334 21.1347C16.3334 19.8348 16.7863 18.7321 17.692 17.8263C18.5975 16.9208 19.7002 16.468 21.0001 16.468C22.2999 16.468 23.4026 16.9208 24.3082 17.8263C25.2139 18.7321 25.6667 19.8348 25.6667 21.1347C25.6667 22.4344 25.2139 23.5371 24.3082 24.4428C23.4026 25.3485 22.2999 25.8014 21.0001 25.8014ZM8.75008 10.1858H19.2501V9.01917H8.75008V10.1858ZM13.4415 23.3333H6.5515C6.03311 23.3333 5.58939 23.1488 5.22033 22.7797C4.85128 22.4107 4.66675 21.9669 4.66675 21.4485V6.55138C4.66675 6.03299 4.85128 5.58926 5.22033 5.22021C5.58939 4.85115 6.03311 4.66663 6.5515 4.66663H21.4487C21.9671 4.66663 22.4108 4.85115 22.7798 5.22021C23.1489 5.58926 23.3334 6.03299 23.3334 6.55138V13.493C22.949 13.3703 22.5635 13.2746 22.177 13.2058C21.7902 13.1369 21.3979 13.1025 21.0001 13.1025C20.6067 13.1025 20.2242 13.1335 19.8524 13.1955C19.4808 13.2578 19.1155 13.3457 18.7566 13.4592V13.4166H8.75008V14.5833H16.4343C15.845 14.9887 15.3271 15.4643 14.8806 16.0101C14.4342 16.5561 14.0666 17.1574 13.7778 17.8141H8.75008V18.9808H13.3695C13.2859 19.3098 13.2205 19.6414 13.1732 19.9756C13.1262 20.3101 13.1026 20.6515 13.1026 21C13.1026 21.3573 13.1235 21.7496 13.1653 22.1768C13.2073 22.6038 13.2994 22.9893 13.4415 23.3333Z" fill="#939393"/>
</svg>
