<svg width="296" height="131" viewBox="0 0 296 131" fill="none" xmlns="http://www.w3.org/2000/svg">
<g filter="url(#filter0_d_738_3)">
<path d="M45.2109 0C49.7682 0 54.1953 0.78125 58.4922 2.34375C62.9193 3.90625 67.151 6.1849 71.1875 9.17969C71.8385 9.83073 72.5547 10.4818 73.3359 11.1328C73.987 10.4818 74.7031 9.83073 75.4844 9.17969C79.5208 6.1849 83.6875 3.90625 87.9844 2.34375C92.4115 0.78125 96.8385 0 101.266 0C105.823 0 110.25 0.78125 114.547 2.34375C118.974 3.90625 123.141 6.25 127.047 9.375C131.083 12.3698 134.599 16.4062 137.594 21.4844C140.719 26.5625 142.281 32.6172 142.281 39.6484V110.156C141.5 117.969 137.203 122.201 129.391 122.852C125.745 122.852 122.555 121.68 119.82 119.336C117.216 116.862 115.914 113.802 115.914 110.156V41.2109C115.914 38.0859 115.328 35.4818 114.156 33.3984C112.984 31.1849 111.682 29.4922 110.25 28.3203C108.818 27.0182 107.32 26.1068 105.758 25.5859C104.195 24.9349 102.633 24.6094 101.07 24.6094C99.5078 24.6094 97.9453 24.9349 96.3828 25.5859C94.9505 26.1068 93.5182 27.0182 92.0859 28.3203C90.6536 29.4922 89.3516 31.1849 88.1797 33.3984C87.0078 35.4818 86.3568 38.0859 86.2266 41.2109V110.156C85.4453 117.969 81.1484 122.201 73.3359 122.852C69.6901 122.852 66.5 121.68 63.7656 119.336C61.1615 116.862 59.8594 113.802 59.8594 110.156V41.2109C59.8594 38.0859 59.2734 35.4818 58.1016 33.3984C56.9297 31.1849 55.6276 29.4922 54.1953 28.3203C52.763 27.0182 51.2656 26.1068 49.7031 25.5859C48.1406 24.9349 46.5781 24.6094 45.0156 24.6094C43.4531 24.6094 41.8906 24.9349 40.3281 25.5859C38.8958 26.1068 37.4635 27.0182 36.0312 28.3203C34.599 29.4922 33.2969 31.1849 32.125 33.3984C30.9531 35.4818 30.3021 38.0859 30.1719 41.2109V110.156C29.5208 117.969 25.2891 122.201 17.4766 122.852C13.8307 122.852 10.6406 121.68 7.90625 119.336C5.30208 116.862 4 113.802 4 110.156V39.6484C4.26042 32.6172 5.88802 26.5625 8.88281 21.4844C11.8776 16.4062 15.3932 12.3698 19.4297 9.375C23.4661 6.25 27.6328 3.90625 31.9297 2.34375C36.3568 0.78125 40.7839 0 45.2109 0Z" fill="url(#paint0_linear_738_3)"/>
</g>
<g filter="url(#filter1_d_738_3)">
<path d="M202 7.89844H246C261.464 7.89844 274 20.4345 274 35.8984H230C214.536 35.8984 202 23.3624 202 7.89844Z" fill="url(#paint1_linear_738_3)"/>
</g>
<g filter="url(#filter2_d_738_3)">
<path d="M202 50.8984H232C247.464 50.8984 260 63.4345 260 78.8984H230C214.536 78.8984 202 66.3624 202 50.8984Z" fill="url(#paint2_linear_738_3)"/>
</g>
<g filter="url(#filter3_d_738_3)">
<path d="M194 7.89844V110.791C194 126.934 167.488 126.934 167.488 110.791C167.488 110.791 166.39 90.8434 167.488 60.1336C168.585 29.4237 178.211 18.7065 194 7.89844Z" fill="url(#paint3_linear_738_3)"/>
</g>
<defs>
<filter id="filter0_d_738_3" x="0" y="0" width="146.281" height="130.852" filterUnits="userSpaceOnUse" color-interpolation-filters="sRGB">
<feFlood flood-opacity="0" result="BackgroundImageFix"/>
<feColorMatrix in="SourceAlpha" type="matrix" values="0 0 0 0 0 0 0 0 0 0 0 0 0 0 0 0 0 0 127 0" result="hardAlpha"/>
<feOffset dy="4"/>
<feGaussianBlur stdDeviation="2"/>
<feComposite in2="hardAlpha" operator="out"/>
<feColorMatrix type="matrix" values="0 0 0 0 0 0 0 0 0 0 0 0 0 0 0 0 0 0 0.25 0"/>
<feBlend mode="normal" in2="BackgroundImageFix" result="effect1_dropShadow_738_3"/>
<feBlend mode="normal" in="SourceGraphic" in2="effect1_dropShadow_738_3" result="shape"/>
</filter>
<filter id="filter1_d_738_3" x="198" y="7.89844" width="80" height="36" filterUnits="userSpaceOnUse" color-interpolation-filters="sRGB">
<feFlood flood-opacity="0" result="BackgroundImageFix"/>
<feColorMatrix in="SourceAlpha" type="matrix" values="0 0 0 0 0 0 0 0 0 0 0 0 0 0 0 0 0 0 127 0" result="hardAlpha"/>
<feOffset dy="4"/>
<feGaussianBlur stdDeviation="2"/>
<feComposite in2="hardAlpha" operator="out"/>
<feColorMatrix type="matrix" values="0 0 0 0 0 0 0 0 0 0 0 0 0 0 0 0 0 0 0.25 0"/>
<feBlend mode="normal" in2="BackgroundImageFix" result="effect1_dropShadow_738_3"/>
<feBlend mode="normal" in="SourceGraphic" in2="effect1_dropShadow_738_3" result="shape"/>
</filter>
<filter id="filter2_d_738_3" x="198" y="50.8984" width="66" height="36" filterUnits="userSpaceOnUse" color-interpolation-filters="sRGB">
<feFlood flood-opacity="0" result="BackgroundImageFix"/>
<feColorMatrix in="SourceAlpha" type="matrix" values="0 0 0 0 0 0 0 0 0 0 0 0 0 0 0 0 0 0 127 0" result="hardAlpha"/>
<feOffset dy="4"/>
<feGaussianBlur stdDeviation="2"/>
<feComposite in2="hardAlpha" operator="out"/>
<feColorMatrix type="matrix" values="0 0 0 0 0 0 0 0 0 0 0 0 0 0 0 0 0 0 0.25 0"/>
<feBlend mode="normal" in2="BackgroundImageFix" result="effect1_dropShadow_738_3"/>
<feBlend mode="normal" in="SourceGraphic" in2="effect1_dropShadow_738_3" result="shape"/>
</filter>
<filter id="filter3_d_738_3" x="163" y="7.89844" width="35" height="123" filterUnits="userSpaceOnUse" color-interpolation-filters="sRGB">
<feFlood flood-opacity="0" result="BackgroundImageFix"/>
<feColorMatrix in="SourceAlpha" type="matrix" values="0 0 0 0 0 0 0 0 0 0 0 0 0 0 0 0 0 0 127 0" result="hardAlpha"/>
<feOffset dy="4"/>
<feGaussianBlur stdDeviation="2"/>
<feComposite in2="hardAlpha" operator="out"/>
<feColorMatrix type="matrix" values="0 0 0 0 0 0 0 0 0 0 0 0 0 0 0 0 0 0 0.25 0"/>
<feBlend mode="normal" in2="BackgroundImageFix" result="effect1_dropShadow_738_3"/>
<feBlend mode="normal" in="SourceGraphic" in2="effect1_dropShadow_738_3" result="shape"/>
</filter>
<linearGradient id="paint0_linear_738_3" x1="146.5" y1="-51.1016" x2="146.5" y2="148.898" gradientUnits="userSpaceOnUse">
<stop offset="0.302885" stop-color="#B1FFA3"/>
<stop offset="0.475962" stop-color="#80E56C"/>
<stop offset="0.572115" stop-color="#71E85A"/>
<stop offset="0.673077" stop-color="#5FD649"/>
<stop offset="0.793269" stop-color="#48C032"/>
<stop offset="0.927885" stop-color="#45A833"/>
</linearGradient>
<linearGradient id="paint1_linear_738_3" x1="238" y1="7.89844" x2="238" y2="35.8984" gradientUnits="userSpaceOnUse">
<stop stop-color="#B1FFA3"/>
<stop offset="0.158654" stop-color="#92ED80"/>
<stop offset="0.384615" stop-color="#80E56C"/>
<stop offset="0.793269" stop-color="#71E85A"/>
</linearGradient>
<linearGradient id="paint2_linear_738_3" x1="231" y1="50.8984" x2="231" y2="78.8984" gradientUnits="userSpaceOnUse">
<stop offset="0.302885" stop-color="#5FD649"/>
<stop offset="0.846154" stop-color="#5FD649"/>
</linearGradient>
<linearGradient id="paint3_linear_738_3" x1="180.5" y1="7.89844" x2="180.5" y2="122.898" gradientUnits="userSpaceOnUse">
<stop offset="0.302885" stop-color="#B1FFA3"/>
<stop offset="0.48" stop-color="#80E56C"/>
<stop offset="0.57" stop-color="#71E85A"/>
<stop offset="0.67" stop-color="#5FD649"/>
<stop offset="0.79" stop-color="#48C032"/>
<stop offset="0.93" stop-color="#45A833"/>
</linearGradient>
</defs>
</svg>
